<?xml version="1.0" encoding="UTF-8" standalone="no"?>
<svg
   xmlns:osb="http://www.openswatchbook.org/uri/2009/osb"
   xmlns:dc="http://purl.org/dc/elements/1.1/"
   xmlns:cc="http://creativecommons.org/ns#"
   xmlns:rdf="http://www.w3.org/1999/02/22-rdf-syntax-ns#"
   xmlns:svg="http://www.w3.org/2000/svg"
   xmlns="http://www.w3.org/2000/svg"
   xmlns:xlink="http://www.w3.org/1999/xlink"
   xmlns:sodipodi="http://sodipodi.sourceforge.net/DTD/sodipodi-0.dtd"
   xmlns:inkscape="http://www.inkscape.org/namespaces/inkscape"
   width="210mm"
   height="297mm"
   viewBox="0 0 210 297"
   version="1.1"
   id="svg8"
   inkscape:version="0.92.4 (5da689c313, 2019-01-14)"
   sodipodi:docname="logo.svg">
  <defs
     id="defs2">
    <marker
       style="overflow:visible"
       id="marker1379"
       refX="0.0"
       refY="0.0"
       orient="auto"
       inkscape:stockid="Arrow1Lstart"
       inkscape:isstock="true">
      <path
         transform="scale(0.8) translate(12.5,0)"
         style="fill-rule:evenodd;stroke:#000000;stroke-width:1.0pt"
         d="M 0.0,0.0 L 5.0,-5.0 L -12.5,0.0 L 5.0,5.0 L 0.0,0.0 z "
         id="path1377" />
    </marker>
    <marker
       style="overflow:visible"
       id="marker1339"
       refX="0.0"
       refY="0.0"
       orient="auto"
       inkscape:stockid="Arrow1Lstart"
       inkscape:isstock="true">
      <path
         transform="scale(0.8) translate(12.5,0)"
         style="fill-rule:evenodd;stroke:#000000;stroke-width:1.0pt"
         d="M 0.0,0.0 L 5.0,-5.0 L -12.5,0.0 L 5.0,5.0 L 0.0,0.0 z "
         id="path1337" />
    </marker>
    <marker
       style="overflow:visible"
       id="marker1305"
       refX="0.0"
       refY="0.0"
       orient="auto"
       inkscape:stockid="Arrow1Lstart"
       inkscape:isstock="true">
      <path
         transform="scale(0.8) translate(12.5,0)"
         style="fill-rule:evenodd;stroke:#000000;stroke-width:1.0pt"
         d="M 0.0,0.0 L 5.0,-5.0 L -12.5,0.0 L 5.0,5.0 L 0.0,0.0 z "
         id="path1303" />
    </marker>
    <marker
       style="overflow:visible"
       id="marker1277"
       refX="0.0"
       refY="0.0"
       orient="auto"
       inkscape:stockid="Arrow1Lstart"
       inkscape:isstock="true">
      <path
         transform="scale(0.8) translate(12.5,0)"
         style="fill-rule:evenodd;stroke:#000000;stroke-width:1.0pt"
         d="M 0.0,0.0 L 5.0,-5.0 L -12.5,0.0 L 5.0,5.0 L 0.0,0.0 z "
         id="path1275" />
    </marker>
    <marker
       style="overflow:visible"
       id="marker1255"
       refX="0.0"
       refY="0.0"
       orient="auto"
       inkscape:stockid="Arrow1Lstart"
       inkscape:isstock="true">
      <path
         transform="scale(0.8) translate(12.5,0)"
         style="fill-rule:evenodd;stroke:#000000;stroke-width:1.0pt"
         d="M 0.0,0.0 L 5.0,-5.0 L -12.5,0.0 L 5.0,5.0 L 0.0,0.0 z "
         id="path1253" />
    </marker>
    <marker
       style="overflow:visible;"
       id="Arrow1Lend"
       refX="0.0"
       refY="0.0"
       orient="auto"
       inkscape:stockid="Arrow1Lend"
       inkscape:isstock="true">
      <path
         transform="scale(0.8) rotate(180) translate(12.5,0)"
         style="fill-rule:evenodd;stroke:#000000;stroke-width:1.0pt;"
         d="M 0.0,0.0 L 5.0,-5.0 L -12.5,0.0 L 5.0,5.0 L 0.0,0.0 z "
         id="path978" />
    </marker>
    <marker
       style="overflow:visible"
       id="Arrow1Lstart"
       refX="0.0"
       refY="0.0"
       orient="auto"
       inkscape:stockid="Arrow1Lstart"
       inkscape:isstock="true">
      <path
         transform="scale(0.8) translate(12.5,0)"
         style="fill-rule:evenodd;stroke:#000000;stroke-width:1.0pt"
         d="M 0.0,0.0 L 5.0,-5.0 L -12.5,0.0 L 5.0,5.0 L 0.0,0.0 z "
         id="path975" />
    </marker>
    <inkscape:path-effect
       effect="powerstroke"
       id="path-effect932"
       is_visible="true"
       lpeversion="1"
       offset_points="0.27527753,-2.7810445 | 0.85289853,-7.5185934 | 1.9159903,-12.559511"
       sort_points="true"
       interpolator_type="CentripetalCatmullRom"
       interpolator_beta="0.2"
       start_linecap_type="zerowidth"
       linejoin_type="round"
       miter_limit="4"
       scale_width="1"
       end_linecap_type="zerowidth" />
    <inkscape:path-effect
       effect="bspline"
       id="path-effect921"
       is_visible="true"
       lpeversion="1"
       weight="33.333333"
       steps="2"
       helper_size="0"
       apply_no_weight="true"
       apply_with_weight="true"
       only_selected="false" />
    <inkscape:path-effect
       effect="bspline"
       id="path-effect917"
       is_visible="true"
       lpeversion="1"
       weight="33.333333"
       steps="2"
       helper_size="0"
       apply_no_weight="true"
       apply_with_weight="true"
       only_selected="false" />
    <inkscape:path-effect
       effect="bspline"
       id="path-effect913"
       is_visible="true"
       lpeversion="1"
       weight="33.333333"
       steps="2"
       helper_size="0"
       apply_no_weight="true"
       apply_with_weight="true"
       only_selected="false" />
    <linearGradient
       id="linearGradient869"
       osb:paint="solid">
      <stop
         style="stop-color:#fefefe;stop-opacity:1;"
         offset="0"
         id="stop867" />
    </linearGradient>
    <linearGradient
       inkscape:collect="always"
       xlink:href="#linearGradient869"
       id="linearGradient871"
       x1="107.43116"
       y1="51.851681"
       x2="271.81133"
       y2="51.851681"
       gradientUnits="userSpaceOnUse"
       gradientTransform="translate(0.14583262,51.583013)" />
    <linearGradient
       inkscape:collect="always"
       xlink:href="#linearGradient869"
       id="linearGradient1452"
       gradientUnits="userSpaceOnUse"
       gradientTransform="translate(0.14583262,51.583013)"
       x1="107.43116"
       y1="51.851681"
       x2="271.81133"
       y2="51.851681" />
  </defs>
  <sodipodi:namedview
     id="base"
     pagecolor="#ffffff"
     bordercolor="#666666"
     borderopacity="1.0"
     inkscape:pageopacity="0.0"
     inkscape:pageshadow="2"
     inkscape:zoom="0.46333581"
     inkscape:cx="-214.78762"
     inkscape:cy="304.13001"
     inkscape:document-units="mm"
     inkscape:current-layer="g947"
     inkscape:document-rotation="0"
     showgrid="false"
     inkscape:window-width="1920"
     inkscape:window-height="1016"
     inkscape:window-x="0"
     inkscape:window-y="36"
     inkscape:window-maximized="1" />
  <metadata
     id="metadata5">
    <rdf:RDF>
      <cc:Work
         rdf:about="">
        <dc:format>image/svg+xml</dc:format>
        <dc:type
           rdf:resource="http://purl.org/dc/dcmitype/StillImage" />
        <dc:title />
      </cc:Work>
    </rdf:RDF>
  </metadata>
  <g
     inkscape:label="Layer 1"
     inkscape:groupmode="layer"
     id="layer1"
     style="display:inline">
    <g
       id="g947">
      <g
         id="g66"
         inkscape:export-xdpi="50"
         inkscape:export-ydpi="50">
        <rect
           inkscape:export-ydpi="96"
           inkscape:export-xdpi="96"
           y="-17.026447"
           x="-228.62668"
           height="282.43787"
           width="478.07272"
           id="rect954"
           style="fill:#ffffff;fill-opacity:1;stroke:none;stroke-width:17.40699959;stroke-linecap:round;stroke-linejoin:round;stroke-miterlimit:4;stroke-dasharray:none;stroke-opacity:1" />
        <g
           inkscape:export-ydpi="96"
           inkscape:export-xdpi="96"
           transform="translate(4.5349224,-15.104905)"
           id="g973">
          <rect
             y="13.415316"
             x="110.0771"
             height="153.05112"
             width="126.57159"
             id="rect907"
             style="fill:#e4f2f6;fill-opacity:1;stroke:none;stroke-width:57.8431015;stroke-linecap:round;stroke-linejoin:round;stroke-miterlimit:4;stroke-dasharray:none;stroke-opacity:1" />
          <path
             inkscape:connector-curvature="0"
             sodipodi:nodetypes="cc"
             id="path833-3-6-7"
             d="M 14.859243,217.3949 C 11.647273,75.994224 204.24279,439.73291 172.40789,74.518579"
             style="fill:none;stroke:#010100;stroke-width:60;stroke-linecap:round;stroke-linejoin:round;stroke-miterlimit:4;stroke-dasharray:none;stroke-opacity:1" />
          <path
             inkscape:connector-curvature="0"
             sodipodi:nodetypes="cc"
             id="path833-3-6"
             d="M 14.859243,217.3949 C 11.647273,75.994223 204.24279,439.73291 172.40789,74.518579"
             style="fill:none;stroke:#e2c100;stroke-width:50;stroke-linecap:round;stroke-linejoin:round;stroke-miterlimit:4;stroke-dasharray:none;stroke-opacity:1" />
          <path
             inkscape:connector-curvature="0"
             sodipodi:nodetypes="cccccccccc"
             d="M 110.07711,13.415318 V 166.46644 H 236.64869 V 13.415318 Z m 9.84952,18.816422 H 226.75164 V 146.95135 H 119.92663 Z"
             style="fill:url(#linearGradient1452);fill-opacity:1;stroke:#000000;stroke-width:4.99998999;stroke-linecap:round;stroke-linejoin:round;stroke-miterlimit:4;stroke-dasharray:none;stroke-opacity:1"
             id="rect865" />
          <g
             transform="matrix(0.50202497,0,0,0.55933832,65.089043,20.924974)"
             id="g939">
            <path
               inkscape:connector-curvature="0"
               sodipodi:nodetypes="sssssssssscsssssccsssccssssccsss"
               style="fill:#000000;fill-rule:nonzero;stroke:none;stroke-width:0.26458299"
               d="m 282.0802,120.86726 c 1.64883,-0.29269 4.55631,-0.7045 7.4438,-0.0689 1.06764,0.23501 2.12253,0.60712 3.1348,1.15677 0.9736,0.52864 1.86568,1.19893 2.66315,2.00646 0.32183,0.3259 0.62371,0.66957 0.90585,1.0287 1.07173,1.36423 1.93137,3.01146 2.54188,4.92035 0.69519,2.17367 1.0492,4.63062 1.05727,7.28767 0.0144,4.73756 -1.08284,10.12689 -3.2168,15.25781 -0.81196,1.95228 -1.78708,3.89371 -2.91997,5.72062 -0.2343,0.37784 -0.47892,0.76349 -0.7337,1.15298 -1.22395,1.87111 -2.88065,4.14242 -4.98614,6.06492 -3.68174,2.94805 -7.78036,5.45457 -12.32918,7.34551 -4.27907,1.77881 -8.8002,2.94677 -13.50107,3.47382 -9.36885,1.05039 -18.68924,-0.52767 -27.11663,-3.81155 -9.53013,-3.71358 -17.35297,-9.36848 -22.87848,-15.08567 -5.60683,-5.80133 -8.69369,-11.47859 -9.4081,-15.33289 -0.68366,-3.68842 0.88105,-6.51172 2.66869,-8.56522 4.28384,-4.12139 5.81399,-4.66893 10.83012,-5.40418 2.65147,-0.37643 5.51495,-0.47828 7.87574,0.77495 2.50728,1.33098 5.19256,4.25469 8.93092,7.93749 3.7148,3.65958 8.15032,7.72232 13.59015,11.08774 4.73187,2.92743 9.8221,5.06048 15.05533,5.80962 6.5484,0.74761 14.49634,-0.33099 19.50456,-4.14117 0.21021,-0.16591 0.41629,-0.34115 0.6166,-0.52344 0.97784,-0.88983 1.9626,-1.96114 2.9033,-3.14467 2.49915,-3.14424 4.45193,-6.75995 5.59164,-9.95939 0.63332,-1.7779 1.01252,-3.40708 1.16123,-4.84137 0.12982,-1.25209 0.0869,-2.37651 -0.12591,-3.37085 -0.20874,-0.96186 -0.64326,-1.96496 -1.13539,-2.68686 -0.4424,-0.64065 -1.00903,-1.23302 -1.71282,-1.76293 -2.01525,-1.51739 -4.59229,-2.10279 -6.41084,-2.32635 z"
               id="path925" />
            <path
               inkscape:connector-curvature="0"
               sodipodi:nodetypes="sssssssssscsssssccsssccssssccsss"
               style="fill:#000000;fill-rule:nonzero;stroke:none;stroke-width:0.26458299"
               d="m 151.15912,120.86726 c -1.64883,-0.29269 -4.55631,-0.7045 -7.4438,-0.0689 -1.06764,0.23501 -2.12253,0.60712 -3.1348,1.15677 -0.9736,0.52864 -1.86568,1.19893 -2.66315,2.00646 -0.32183,0.3259 -0.62371,0.66957 -0.90585,1.0287 -1.07173,1.36423 -1.93137,3.01146 -2.54188,4.92035 -0.69519,2.17366 -1.0492,4.63062 -1.05727,7.28767 -0.0144,4.73756 1.08284,10.12689 3.2168,15.2578 0.81196,1.95229 1.78708,3.89372 2.91997,5.72063 0.2343,0.37784 0.47892,0.76349 0.7337,1.15298 1.22395,1.87111 2.88065,4.14242 4.98614,6.06492 3.68174,2.94805 7.78036,5.45457 12.32918,7.34551 4.27907,1.77881 8.8002,2.94677 13.50107,3.47382 9.36885,1.05039 18.68924,-0.52767 27.11663,-3.81155 9.53013,-3.71358 17.35297,-9.36848 22.87848,-15.08567 5.60683,-5.80133 8.69369,-11.47859 9.4081,-15.33289 0.68366,-3.68842 -0.88105,-6.51172 -2.66869,-8.56522 -4.28384,-4.12139 -5.81399,-4.66893 -10.83012,-5.40418 -2.65147,-0.37643 -5.51495,-0.47828 -7.87574,0.77495 -2.50728,1.33098 -5.19256,4.25469 -8.93092,7.93749 -3.7148,3.65958 -8.15032,7.72232 -13.59015,11.08774 -4.73187,2.92743 -9.8221,5.06048 -15.05533,5.80962 -6.5484,0.74761 -14.49634,-0.33099 -19.50456,-4.14117 -0.21021,-0.16591 -0.41629,-0.34115 -0.6166,-0.52344 -0.97784,-0.88983 -1.9626,-1.96114 -2.9033,-3.14467 -2.49915,-3.14424 -4.45193,-6.75995 -5.59164,-9.95939 -0.63332,-1.77791 -1.01252,-3.40708 -1.16123,-4.84137 -0.12982,-1.25209 -0.0869,-2.37651 0.12591,-3.37085 0.20874,-0.96186 0.64326,-1.96496 1.13539,-2.68686 0.4424,-0.64065 1.00903,-1.23302 1.71282,-1.76293 2.01525,-1.51739 4.59229,-2.10279 6.41084,-2.32635 z"
               id="path935" />
          </g>
          <g
             transform="rotate(-9.7198707,399.77504,-1660.7574)"
             id="g952">
            <path
               inkscape:connector-curvature="0"
               d="m 149.54016,1.9614322 a 32.958004,36.254452 0 0 1 -16.47901,31.3972768 32.958004,36.254452 0 0 1 -32.958,-10e-7 A 32.958004,36.254452 0 0 1 83.624149,1.9614322 h 32.958001 z"
               transform="scale(-1)"
               style="fill:#000000;fill-opacity:1;stroke:none;stroke-width:63.62850189;stroke-linecap:round;stroke-linejoin:round;stroke-miterlimit:4;stroke-dasharray:none;stroke-opacity:1"
               id="path941" />
            <path
               inkscape:connector-curvature="0"
               id="path943"
               d="m -154.41909,3.3377797 h 75.673877"
               style="fill:none;stroke:#000000;stroke-width:12.75489998;stroke-linecap:round;stroke-linejoin:round;stroke-miterlimit:4;stroke-dasharray:none;stroke-opacity:1" />
          </g>
        </g>
        <text
           inkscape:export-ydpi="96"
           inkscape:export-xdpi="96"
           id="text1425"
           y="68.62178"
           x="-214.68004"
           style="font-style:normal;font-weight:normal;font-size:10.58329964px;line-height:1;font-family:sans-serif;fill:#000000;fill-opacity:1;stroke:none;stroke-width:0.26458299"
           xml:space="preserve"><tspan
             y="76.662605"
             x="-214.68004"
             id="tspan1429"
             sodipodi:role="line"
             style="font-style:normal;font-variant:normal;font-weight:bold;font-stretch:normal;font-size:35.27780151px;font-family:Karumbi;-inkscape-font-specification:'Karumbi Bold';stroke-width:0.26458299" /><tspan
             id="tspan1427"
             style="font-style:normal;font-variant:normal;font-weight:normal;font-stretch:normal;font-size:52.91669846px;font-family:Laksaman;-inkscape-font-specification:Laksaman;stroke-width:0.26458299"
             y="119.40937"
             x="-214.68004"
             sodipodi:role="line">Photobooth</tspan></text>
        <text
           inkscape:export-ydpi="96"
           inkscape:export-xdpi="96"
           id="text1425-6"
           y="75.166641"
           x="-234.12267"
           style="font-style:normal;font-weight:normal;font-size:10.58329964px;line-height:1;font-family:sans-serif;fill:#000000;fill-opacity:1;stroke:none;stroke-width:0.26458299"
           xml:space="preserve"><tspan
             y="75.166641"
             x="-234.12267"
             id="tspan1429-1"
             sodipodi:role="line"
             style="font-style:normal;font-variant:normal;font-weight:bold;font-stretch:normal;font-size:105.83300018px;font-family:Dyuthi;-inkscape-font-specification:'Dyuthi Bold';stroke-width:0.26458299">Worm</tspan><tspan
             id="tspan1427-7"
             style="font-style:normal;font-variant:normal;font-weight:normal;font-stretch:normal;font-family:Laksaman;-inkscape-font-specification:Laksaman;stroke-width:0.26458299"
             y="108.63219"
             x="-234.12267"
             sodipodi:role="line" /></text>
      </g>
    </g>
  </g>
</svg>
